<?xml version="1.0" standalone="no"?>
<!DOCTYPE svg PUBLIC "-//W3C//DTD SVG 20010904//EN"
 "http://www.w3.org/TR/2001/REC-SVG-20010904/DTD/svg10.dtd">
<svg version="1.0" xmlns="http://www.w3.org/2000/svg"
 width="510.000000pt" height="510.000000pt" viewBox="0 0 510.000000 510.000000"
 preserveAspectRatio="xMidYMid meet">
<metadata>
Created by potrace 1.16, written by Peter Selinger 2001-2019
</metadata>
<g transform="translate(0.000000,510.000000) scale(0.100000,-0.100000)"
fill="#000000" stroke="none">
<path d="M0 2550 l0 -2550 2550 0 2550 0 0 2550 0 2550 -2550 0 -2550 0 0
-2550z m2555 1900 c7 -23 41 -26 91 -8 29 10 36 9 54 -7 17 -15 20 -16 20 -3
0 9 6 20 13 26 19 16 71 -27 62 -50 -11 -28 -69 -39 -112 -22 l-36 15 7 -43
c4 -24 10 -62 13 -86 4 -33 9 -42 21 -37 28 10 62 -22 62 -60 0 -33 -20 -60
-28 -37 -7 21 -42 14 -42 -8 0 -69 70 -116 142 -97 56 15 62 87 7 87 -22 0
-29 5 -29 18 0 25 34 55 56 50 13 -2 25 9 39 37 11 22 27 41 36 43 19 3 44
-49 41 -84 -1 -18 4 -23 26 -26 21 -2 28 -9 30 -31 4 -34 -16 -63 -32 -47 -18
18 -36 11 -36 -14 0 -30 52 -76 85 -76 13 0 37 11 52 24 23 21 26 28 17 43 -7
10 -21 17 -33 16 -17 -2 -21 3 -21 24 0 31 26 63 51 63 16 0 52 -36 62 -63 3
-8 13 -4 29 11 41 37 99 26 126 -25 17 -31 17 -31 -36 -31 -59 0 -103 -21
-135 -64 -43 -58 -51 -81 -56 -178 l-6 -95 -85 -6 c-47 -4 -141 -16 -210 -28
-156 -26 -212 -26 -342 -1 -57 11 -140 23 -186 27 -45 3 -89 11 -98 17 -10 8
-19 41 -26 96 -19 158 -94 246 -199 234 -48 -6 -53 14 -13 51 33 30 73 32 104
5 13 -11 24 -20 26 -20 1 0 11 16 23 35 13 22 28 35 41 35 28 0 60 -35 60 -65
0 -20 -5 -25 -24 -25 -36 0 -42 -31 -11 -57 29 -25 52 -28 88 -12 24 11 47 47
47 73 0 19 -25 27 -39 13 -10 -9 -16 -8 -26 6 -20 27 -4 61 29 65 21 3 26 8
21 21 -7 24 14 40 53 39 24 -1 32 -6 32 -20 0 -12 7 -18 21 -18 56 0 85 -56
32 -62 -41 -4 -44 -48 -6 -78 23 -18 37 -21 76 -17 78 7 119 62 82 111 -12 15
-17 17 -29 7 -21 -17 -36 -5 -36 27 0 34 8 46 44 63 25 12 32 23 42 74 18 87
18 88 -13 82 -28 -5 -83 10 -83 23 0 5 4 20 10 34 12 31 46 35 55 6z m-588
-647 c18 -13 54 -51 80 -86 58 -75 98 -120 229 -257 55 -58 129 -141 164 -185
100 -125 181 -215 194 -215 11 0 162 159 427 450 176 193 291 315 305 323 9 5
50 -26 128 -99 63 -58 159 -140 213 -181 126 -95 133 -104 133 -175 0 -57 0
-58 -47 -93 -27 -19 -53 -35 -59 -35 -12 0 -359 -350 -536 -542 -60 -63 -108
-122 -108 -131 0 -9 52 -64 116 -124 63 -59 139 -140 169 -179 29 -39 83 -98
119 -130 37 -33 87 -89 112 -126 26 -37 53 -69 60 -72 8 -3 14 -10 14 -15 0
-5 30 -39 67 -75 61 -61 66 -69 57 -94 -5 -14 -25 -36 -45 -47 -20 -11 -115
-94 -213 -185 -116 -109 -184 -165 -198 -165 -15 0 -36 18 -65 57 -60 79 -157
158 -193 158 -35 0 -45 13 -26 33 12 12 4 25 -57 94 -145 162 -362 388 -373
388 -6 0 -71 -65 -144 -145 -73 -80 -167 -181 -209 -225 -172 -182 -267 -293
-313 -366 -16 -25 -42 -138 -34 -147 5 -4 59 24 86 44 22 17 129 49 275 84 93
22 160 45 234 81 107 52 125 53 113 5 -5 -20 -219 -278 -269 -323 -13 -13 -36
-23 -52 -23 -39 0 -114 -51 -187 -128 -48 -50 -66 -64 -75 -55 -20 20 -1 59
57 123 31 33 52 60 46 60 -6 0 -38 -30 -71 -67 -44 -49 -61 -76 -61 -96 0 -28
-47 -87 -68 -87 -15 0 -29 22 -36 59 -3 19 -23 52 -45 76 -22 24 -46 56 -55
73 -16 31 -16 31 33 90 45 54 49 64 56 129 l7 70 -31 -5 c-17 -2 -28 -9 -25
-14 9 -14 -6 -118 -17 -118 -5 0 -9 35 -9 78 0 42 -5 84 -11 92 -7 11 -8 -14
-3 -81 4 -67 3 -103 -6 -118 -6 -13 -14 -20 -17 -17 -3 3 -7 47 -9 98 -4 139
-6 152 -17 160 -16 10 -27 0 -27 -22 0 -12 -9 -22 -24 -26 -32 -8 -46 2 -46
32 0 17 5 24 20 24 28 0 25 18 -5 32 -16 7 -25 19 -25 33 0 17 -6 22 -30 22
-23 0 -30 -5 -28 -16 2 -10 12 -15 26 -13 26 4 29 -15 5 -34 -17 -13 -17 -14
3 -20 20 -5 22 -14 28 -142 5 -106 3 -153 -8 -207 -9 -38 -16 -107 -16 -153 0
-97 -12 -123 -71 -146 -21 -9 -39 -22 -39 -30 0 -17 -99 -106 -117 -106 -40 0
23 137 95 207 51 48 52 51 52 106 0 40 8 77 26 120 26 61 26 63 14 162 -12 97
-36 175 -59 189 -7 5 -11 -7 -11 -36 -1 -41 -26 -88 -48 -88 -10 0 -9 121 2
138 3 6 -2 24 -11 41 -13 23 -23 30 -38 27 -39 -10 -48 7 -41 70 4 33 8 95 10
139 3 67 7 82 25 93 12 8 21 20 21 27 0 33 41 106 65 117 17 8 25 18 22 29 -3
9 -2 21 2 26 8 12 70 43 87 43 15 0 133 94 221 177 77 73 237 245 274 297 46
63 41 75 -74 189 -57 56 -132 136 -167 177 -35 41 -68 77 -73 79 -6 2 -6 -20
-2 -58 5 -44 3 -66 -5 -76 -15 -18 -7 -132 10 -149 19 -19 10 -46 -29 -87 -37
-40 -61 -45 -61 -12 0 8 9 27 21 41 18 23 19 35 13 92 -3 36 -10 70 -15 76 -4
5 -6 20 -2 32 8 34 -24 107 -63 142 -19 16 -39 30 -43 30 -17 0 -61 92 -61
127 0 74 -29 142 -91 210 -32 36 -59 71 -59 78 0 7 52 62 115 121 64 59 141
141 172 181 56 73 99 108 151 122 35 10 60 4 99 -26z m-1064 -258 l-6 -45 33
0 c23 0 40 -9 60 -30 15 -16 38 -30 50 -30 13 0 37 -16 56 -36 48 -51 45 -65
-10 -44 -25 9 -56 4 -56 -9 0 -10 67 -34 115 -41 l40 -5 -26 -18 c-23 -15 -33
-16 -72 -6 -57 14 -84 6 -39 -12 36 -15 40 -24 16 -37 -12 -7 -7 -14 28 -36
24 -15 54 -43 67 -62 19 -27 30 -34 50 -32 23 3 27 10 41 73 9 39 22 80 28 91
19 35 70 73 109 80 32 6 40 3 60 -21 27 -31 26 -50 -3 -50 -12 0 -20 8 -22 23
-2 12 -9 22 -16 22 -13 0 -53 -38 -45 -43 2 -2 23 -11 47 -22 54 -23 57 -29
27 -49 -20 -13 -28 -14 -45 -4 -17 11 -23 10 -39 -7 -11 -11 -21 -31 -23 -45
-3 -21 1 -25 25 -25 32 1 34 -11 7 -39 -23 -25 -54 -96 -41 -96 11 0 63 40 79
62 16 22 54 25 46 3 -4 -9 0 -15 10 -15 25 0 19 -16 -13 -39 -33 -24 -51 -27
-52 -8 -2 27 -28 -71 -28 -110 l-1 -42 35 6 c43 7 46 -9 7 -32 -18 -11 -39
-41 -58 -81 -29 -62 -29 -64 -9 -64 12 0 30 -7 41 -15 18 -14 17 -14 -13 -15
-21 0 -45 -12 -75 -37 -47 -39 -47 -38 -23 -103 9 -25 14 -57 11 -71 -3 -15
-1 -43 5 -63 9 -33 13 -36 46 -36 34 0 35 -1 21 -22 -8 -13 -32 -32 -53 -42
-32 -16 -35 -20 -20 -28 9 -6 41 -7 71 -3 66 8 84 -3 84 -51 0 -39 10 -42 69
-18 22 8 50 14 63 12 20 -3 23 -9 26 -53 2 -43 -1 -55 -27 -85 l-30 -35 -1 33
c0 37 -23 52 -49 33 -9 -6 -36 -21 -61 -32 -25 -12 -58 -33 -73 -47 -24 -23
-29 -24 -37 -12 -5 8 -10 25 -10 37 0 16 -8 25 -25 29 -14 3 -34 19 -46 35
-16 22 -26 28 -43 23 -20 -5 -24 -1 -30 27 -10 53 -7 93 14 154 23 68 23 65 9
65 -6 0 -18 -18 -26 -40 -17 -42 -33 -45 -33 -5 0 27 -39 60 -54 45 -5 -5 -1
-28 13 -60 15 -36 20 -61 15 -85 -5 -27 -2 -37 15 -51 25 -22 26 -37 5 -69
-24 -37 -15 -68 24 -81 17 -5 37 -15 43 -21 18 -18 -51 -35 -110 -27 -46 6
-51 5 -51 -12 0 -12 14 -27 36 -39 20 -11 44 -35 55 -57 24 -47 10 -49 -38 -8
-33 29 -39 31 -109 28 l-74 -2 0 -31 c0 -21 -9 -40 -25 -55 -31 -30 -32 -48
-1 -60 36 -13 40 -29 10 -36 -16 -4 -39 -1 -60 10 -45 21 -44 21 -44 -14 0
-25 4 -30 35 -36 61 -11 71 -67 11 -57 -20 3 -45 -1 -64 -11 -47 -24 -98 -21
-127 9 -36 35 -33 80 6 114 72 60 98 89 105 116 14 58 -32 81 -90 46 -18 -12
-38 -21 -45 -21 -21 0 -11 30 19 52 17 12 30 25 30 28 0 3 -18 16 -40 29 -39
22 -50 43 -30 56 22 14 9 50 -25 74 -23 15 -32 28 -26 34 14 14 100 -22 142
-60 l36 -32 22 29 c28 38 47 38 55 0 4 -24 11 -30 31 -30 73 0 131 84 95 140
-8 12 -13 11 -33 -8 -24 -23 -71 -29 -96 -13 -11 7 -4 14 27 30 27 14 44 30
48 46 7 30 -1 82 -17 102 -18 21 -68 15 -101 -12 -16 -14 -36 -25 -43 -25 -8
0 -16 -9 -20 -19 -7 -22 -17 -27 -78 -36 -43 -7 -49 -5 -77 23 -16 17 -30 37
-30 45 0 8 16 34 35 57 33 40 45 70 27 70 -5 0 -31 -7 -58 -15 -62 -19 -105
-19 -130 0 -18 14 -17 14 12 15 43 0 50 11 15 26 -15 6 -41 28 -56 48 -29 38
-27 60 3 38 47 -34 100 -51 172 -53 84 -2 103 -7 94 -21 -4 -6 1 -8 14 -4 48
16 35 -31 -29 -101 -41 -45 -49 -70 -24 -79 28 -11 63 6 118 55 44 41 117 150
117 175 0 3 -20 6 -45 6 -25 0 -45 3 -45 8 1 4 20 16 43 28 83 40 59 74 -98
135 -123 48 -155 66 -155 90 0 20 4 21 49 15 27 -4 52 -2 55 3 10 16 -28 48
-76 64 -128 42 -216 158 -249 330 -13 71 -2 76 38 15 106 -159 145 -193 266
-233 98 -32 111 -32 103 -2 -14 47 -19 117 -9 117 6 0 29 -24 51 -54 55 -73
116 -120 131 -102 36 43 20 105 -44 166 -46 45 -72 87 -80 129 -8 44 -12 51
-30 44 -12 -4 -15 5 -15 45 0 39 -6 57 -25 80 -33 39 -32 44 10 36 27 -5 41
-2 55 11 27 24 25 31 -10 52 -36 21 -42 49 -7 36 12 -4 41 -8 65 -8 35 0 48 7
79 38 21 20 41 37 45 37 4 0 5 -20 1 -45z m3077 -58 c29 -10 35 -17 35 -39 0
-33 48 -88 77 -88 16 0 19 5 15 22 -4 12 -1 28 5 35 7 9 7 17 -2 28 -7 9 -11
18 -8 20 7 7 82 -16 98 -31 10 -8 35 -13 65 -11 41 2 56 -3 86 -26 36 -27 92
-37 104 -17 12 19 25 0 15 -21 -9 -15 -7 -19 5 -19 9 0 25 5 35 10 34 18 31
-7 -5 -41 -20 -19 -35 -43 -35 -56 0 -25 -15 -39 -25 -22 -14 22 -36 -29 -29
-66 3 -19 3 -43 -1 -52 -6 -16 -8 -15 -25 7 -15 20 -21 22 -34 11 -14 -11 -14
-17 -1 -47 13 -32 13 -34 -13 -46 -28 -13 -91 -122 -78 -135 11 -11 79 51 116
105 37 54 45 60 52 40 5 -14 -13 -110 -27 -141 -7 -18 -6 -18 31 1 21 11 63
27 92 36 30 8 69 25 87 36 46 28 116 108 161 182 20 33 40 56 45 51 11 -11
-26 -154 -53 -207 -49 -96 -104 -142 -215 -183 -37 -13 -75 -30 -83 -38 -8 -7
-24 -15 -35 -18 -11 -2 5 -5 35 -6 34 0 82 9 125 23 39 14 72 22 75 19 8 -8
-71 -72 -120 -97 -25 -13 -90 -39 -144 -57 -80 -26 -102 -30 -117 -21 -23 15
-23 9 -2 -54 9 -27 25 -55 35 -62 27 -20 78 -113 78 -143 0 -16 9 -33 23 -42
18 -12 20 -18 10 -28 -21 -21 -15 -31 15 -25 35 8 62 -8 45 -25 -17 -17 2 -39
33 -39 26 0 30 -10 13 -27 -7 -7 -2 -14 20 -21 35 -13 41 -37 10 -45 -13 -4
-20 -12 -17 -24 2 -14 14 -19 56 -21 50 -3 53 -2 47 17 -5 18 -2 21 20 21 30
0 67 -37 102 -102 26 -48 19 -64 -21 -48 -15 5 -42 10 -61 10 -38 0 -52 14
-35 35 14 16 5 22 -47 31 -40 6 -41 6 -48 -27 -12 -53 -41 -103 -80 -137 -41
-36 -70 -43 -60 -13 5 17 2 18 -36 11 -45 -8 -134 8 -134 25 0 6 21 11 48 13
51 3 53 5 32 42 -26 45 -19 76 22 100 l36 21 -27 27 -28 27 -31 -39 c-18 -22
-53 -61 -78 -86 -46 -47 -59 -79 -59 -146 0 -23 -7 -38 -26 -53 -38 -30 -74
-25 -44 5 8 8 6 15 -4 23 -19 16 -24 13 -64 -42 -34 -48 -32 -57 18 -72 31 -9
40 -22 40 -58 0 -39 -25 -45 -58 -14 -15 14 -43 33 -62 41 -37 16 -165 124
-201 171 -18 22 -20 29 -8 36 8 5 24 9 37 9 13 0 22 6 22 15 0 21 33 19 53 -2
8 -10 19 -31 23 -48 11 -46 14 -48 43 -22 14 13 42 34 63 46 52 31 55 48 12
87 -30 28 -34 37 -24 49 17 21 -5 75 -31 75 -11 0 -19 4 -19 9 0 5 -9 7 -20 4
-23 -6 -25 0 -9 29 8 15 8 22 -1 28 -9 6 -7 11 9 19 37 20 26 41 -22 41 -23 0
-53 7 -65 16 -26 18 -27 13 -6 -28 12 -24 13 -36 5 -54 -6 -13 -14 -24 -18
-24 -17 1 -54 75 -60 119 -3 28 -15 56 -29 71 -13 14 -28 40 -35 57 -6 18 -19
35 -30 38 -12 4 -19 15 -19 30 0 13 -5 27 -10 30 -21 13 3 27 36 22 29 -5 34
-3 34 14 0 26 36 25 51 -2 8 -16 13 -18 19 -9 10 16 38 6 47 -16 3 -9 -1 -29
-11 -44 -30 -51 6 -93 92 -105 20 -3 43 -1 51 4 22 14 -13 95 -65 151 -23 25
-44 54 -46 65 -3 17 -11 20 -47 18 -36 -2 -41 0 -31 13 7 7 21 14 31 14 11 0
19 5 19 10 0 6 -11 10 -24 10 -14 0 -28 5 -31 10 -4 6 5 10 19 10 34 0 35 29
3 66 -28 32 -57 27 -57 -8 0 -30 -10 -44 -36 -52 -19 -6 -22 -2 -27 26 -2 18
0 39 6 46 5 7 9 34 8 60 -3 59 -3 75 0 135 1 26 -3 53 -9 59 -23 23 -12 31 34
24 42 -5 45 -4 39 14 -5 15 -2 20 12 20 24 0 43 -19 43 -42 0 -10 7 -18 15
-18 8 0 15 5 15 10 0 6 7 10 15 10 10 0 15 -10 15 -30 0 -22 -10 -37 -39 -61
-22 -17 -42 -42 -45 -55 -4 -13 -11 -24 -16 -24 -17 0 -11 -40 8 -46 9 -3 30
-12 46 -20 16 -8 30 -13 31 -12 2 2 -1 26 -5 53 -8 49 -7 51 36 97 32 35 44
55 44 78 0 35 -38 80 -68 80 -11 0 -30 8 -42 18 l-22 18 56 27 c64 32 71 52
31 99 -14 16 -25 36 -25 44 0 22 48 17 62 -6 16 -25 31 -26 25 -2 -19 67 -18
72 7 72 14 0 31 -9 39 -21 11 -15 16 -17 20 -7 8 22 42 -5 45 -36 3 -19 -7
-40 -32 -71 -37 -45 -47 -91 -22 -101 17 -7 48 9 99 49 49 40 52 89 7 132 -17
16 -26 32 -20 35 5 3 -10 20 -35 38 -25 17 -45 38 -45 47 0 8 -6 15 -14 15
-12 0 -96 76 -96 87 0 8 68 1 100 -10z m-3589 -666 c18 -15 21 -22 13 -31 -13
-13 -58 10 -68 36 -8 21 27 18 55 -5z m2412 -1406 c65 -31 144 -58 268 -89 97
-24 198 -55 225 -69 68 -34 145 -98 179 -147 l28 -41 -22 -27 c-29 -37 -67
-90 -94 -132 -31 -48 -99 -94 -126 -85 -15 5 -20 12 -16 25 3 10 0 20 -8 23
-8 3 -28 30 -45 61 -33 58 -174 206 -197 206 -7 0 -16 -10 -19 -22 l-6 -23
-21 25 c-11 14 -69 78 -127 143 -103 115 -139 168 -127 188 9 13 6 14 108 -36z
m-1075 -143 c3 -17 -2 -22 -17 -22 -16 0 -21 6 -21 26 0 33 33 30 38 -4z
m-198 -8 c0 -29 -16 -64 -30 -64 -13 0 -13 32 0 64 12 33 30 33 30 0z"/>
<path d="M1952 3549 c-23 -12 -87 -64 -142 -116 -116 -110 -135 -148 -107
-208 9 -19 23 -35 30 -35 19 0 43 30 51 62 3 15 25 42 47 60 23 18 72 63 108
101 38 38 76 67 87 67 24 0 64 27 64 43 0 16 -28 33 -65 41 -21 4 -43 0 -73
-15z"/>
<path d="M3172 3517 c-12 -13 -22 -28 -22 -34 0 -19 212 -226 283 -277 63 -44
95 -54 72 -22 -31 43 -299 356 -305 356 -3 0 -16 -10 -28 -23z"/>
<path d="M2092 3477 c-12 -13 -22 -29 -22 -36 0 -7 -11 -26 -25 -43 -27 -32
-24 -47 15 -83 l22 -20 29 33 c34 38 44 70 35 116 -10 50 -28 61 -54 33z"/>
<path d="M3076 3411 c-25 -28 -20 -43 42 -116 52 -62 184 -175 205 -175 5 0
-12 24 -37 54 -77 90 -55 90 69 1 89 -65 117 -74 123 -44 2 10 -15 28 -46 48
-41 26 -167 116 -207 148 -128 101 -132 103 -149 84z"/>
<path d="M2120 3230 c-69 -66 -146 -137 -172 -157 -27 -20 -48 -44 -48 -53 0
-9 13 -29 30 -45 l29 -28 107 99 c59 54 138 128 176 164 l69 65 -27 38 c-15
20 -30 37 -33 37 -3 -1 -62 -55 -131 -120z"/>
<path d="M1912 3318 c-7 -7 -12 -22 -12 -34 0 -32 -37 -74 -66 -74 -25 0 -74
-26 -74 -40 0 -4 12 -11 26 -14 18 -5 24 -11 19 -25 -3 -11 3 -25 15 -36 23
-21 10 -28 128 75 39 34 72 68 72 74 0 14 -72 86 -86 86 -5 0 -15 -5 -22 -12z"/>
<path d="M2967 3292 c-25 -27 -22 -35 31 -72 26 -19 109 -80 186 -137 76 -57
144 -103 150 -103 19 0 61 49 50 58 -5 5 -40 30 -79 57 -38 27 -120 86 -181
132 -61 46 -118 83 -126 83 -8 0 -22 -8 -31 -18z"/>
<path d="M2858 3166 c-16 -8 -33 -18 -39 -21 -15 -10 29 -55 53 -55 24 0 248
-207 248 -229 0 -9 13 -30 29 -45 l29 -28 16 30 c22 42 20 88 -4 127 -29 47
-201 202 -244 220 -44 19 -54 19 -88 1z"/>
<path d="M2766 3076 c-32 -68 -18 -101 81 -197 147 -142 197 -170 257 -145 47
20 56 43 25 67 -13 10 -32 19 -42 19 -24 0 -227 187 -243 225 -17 38 -38 65
-51 65 -6 0 -18 -15 -27 -34z"/>
<path d="M2270 2974 c-107 -68 -196 -130 -198 -137 -1 -7 11 -25 27 -41 l29
-28 139 100 c76 54 164 116 196 137 31 21 57 41 57 44 0 14 -32 51 -43 50 -7
0 -100 -57 -207 -125z"/>
<path d="M1695 3070 c-11 -17 5 -67 27 -86 11 -11 27 -32 34 -49 l13 -30 1 46
c0 33 -5 49 -15 53 -8 3 -15 17 -15 30 0 27 -34 54 -45 36z"/>
<path d="M2463 2975 c-39 -30 -91 -77 -114 -104 -33 -38 -46 -47 -56 -39 -9 7
-20 6 -38 -6 -23 -15 -24 -18 -10 -32 20 -21 19 -27 -10 -62 -32 -38 -31 -52
3 -86 l29 -27 142 192 c79 106 145 198 148 206 10 26 -24 11 -94 -42z"/>
<path d="M1999 2952 l-22 -19 28 -36 c27 -33 30 -34 52 -20 29 19 29 35 -1 67
-28 31 -28 31 -57 8z"/>
<path d="M2583 2849 c-41 -26 -65 -78 -61 -132 3 -41 4 -42 42 -45 43 -4 56 7
56 49 0 29 20 50 67 68 18 7 38 20 45 28 10 13 8 19 -11 34 -31 25 -97 25
-138 -2z"/>
<path d="M2738 2798 c-9 -7 -28 -33 -43 -58 l-28 -44 34 -28 34 -28 17 22 c31
40 41 86 28 119 -14 32 -19 35 -42 17z"/>
<path d="M2365 2637 c-29 -51 -30 -65 -10 -113 l15 -35 25 18 c14 10 28 29 31
43 4 14 16 37 26 52 l19 28 -28 25 c-15 13 -33 25 -40 25 -7 0 -24 -20 -38
-43z"/>
<path d="M2520 2619 c0 -45 -14 -65 -76 -104 -62 -40 -62 -56 1 -74 76 -21
145 30 166 123 16 74 10 86 -46 86 -44 0 -45 -1 -45 -31z"/>
<path d="M2813 2618 c-53 -29 -186 -148 -224 -201 -34 -46 -38 -103 -13 -143
l17 -25 28 27 c15 14 30 36 33 48 6 26 208 216 230 216 9 0 30 13 48 29 l32
28 -25 16 c-44 29 -80 30 -126 5z"/>
<path d="M2952 2554 c-12 -8 -22 -25 -22 -38 0 -12 -11 -33 -25 -46 -32 -30
-31 -40 5 -75 35 -34 50 -30 88 25 26 38 28 79 7 120 -18 34 -22 36 -53 14z"/>
<path d="M2145 2411 c-8 -14 105 -141 170 -191 44 -34 53 -45 44 -57 -9 -10
-8 -18 6 -33 16 -18 20 -19 35 -5 22 20 26 19 64 -10 18 -14 37 -25 43 -25 11
0 53 42 53 54 0 12 -53 55 -95 78 -22 11 -99 60 -172 109 -73 49 -134 89 -137
89 -3 0 -7 -4 -11 -9z"/>
<path d="M2775 2390 c-15 -17 -16 -22 -4 -36 12 -14 10 -19 -14 -40 -16 -13
-48 -29 -72 -35 -47 -12 -71 -31 -60 -49 3 -5 15 -10 27 -10 13 0 18 -5 15
-14 -7 -18 20 -56 39 -56 8 0 53 37 99 81 l85 82 -37 41 c-49 55 -57 59 -78
36z"/>
<path d="M2095 2360 c-9 -10 -15 -26 -12 -33 9 -23 278 -387 286 -387 9 0 61
54 61 64 0 4 -39 55 -87 113 -49 58 -116 141 -151 185 -34 43 -66 78 -70 78
-5 0 -17 -9 -27 -20z"/>
<path d="M3065 2371 c-29 -12 -208 -174 -235 -210 -30 -43 -36 -91 -16 -129 9
-18 19 -32 22 -32 19 0 44 25 54 55 15 45 219 235 253 235 13 0 32 9 42 20 18
20 18 21 -2 41 -22 23 -87 34 -118 20z"/>
<path d="M3191 2284 c-12 -15 -21 -32 -21 -39 0 -22 -207 -213 -253 -233 -58
-26 -63 -36 -31 -61 63 -49 124 -22 272 123 104 101 121 141 87 206 -19 37
-28 37 -54 4z"/>
<path d="M3324 2153 c-7 -10 -73 -90 -148 -178 -75 -88 -136 -166 -136 -174 0
-8 10 -25 22 -38 l22 -23 33 37 c22 24 37 33 41 26 5 -8 30 4 75 34 37 26 70
44 73 40 4 -3 -28 -49 -70 -102 -70 -87 -90 -130 -60 -130 6 0 41 38 79 85 38
47 106 127 153 177 64 71 82 97 77 112 -13 41 -41 35 -123 -28 -44 -33 -102
-86 -130 -118 -28 -32 -54 -55 -57 -51 -11 11 22 63 64 101 22 19 45 46 52 59
7 12 35 46 62 75 l50 53 -28 30 c-34 35 -37 36 -51 13z"/>
<path d="M1874 2119 l-29 -30 75 -72 c41 -39 119 -113 172 -164 53 -51 103
-93 110 -92 7 0 25 15 40 33 l27 32 -174 162 c-96 89 -178 162 -183 162 -4 0
-21 -14 -38 -31z"/>
<path d="M1748 1973 c-21 -8 -38 -21 -38 -28 0 -17 33 -45 55 -45 11 0 32 -12
47 -27 l28 -27 35 34 c19 19 35 37 35 42 0 11 -71 55 -100 61 -14 3 -42 -1
-62 -10z"/>
<path d="M2265 1920 c-28 -29 -28 -30 -9 -52 10 -13 20 -25 22 -27 3 -6 62 58
62 68 0 8 -33 41 -41 41 -3 0 -18 -13 -34 -30z"/>
<path d="M3450 1881 c-47 -37 -122 -110 -167 -162 -128 -147 -117 -146 89 4
84 61 171 123 191 137 20 14 37 30 37 36 0 13 -43 54 -56 53 -5 0 -47 -31 -94
-68z"/>
<path d="M1666 1898 c-23 -32 -20 -85 8 -132 26 -44 158 -169 216 -205 43 -26
100 -27 131 -3 30 25 20 48 -33 71 -58 25 -240 191 -253 232 -6 18 -21 39 -32
46 -19 13 -23 12 -37 -9z"/>
<path d="M1918 1816 c-35 -41 -36 -45 -20 -59 10 -9 27 -13 43 -10 22 4 32 -2
53 -30 14 -18 26 -40 26 -48 0 -18 28 -59 40 -59 5 0 10 10 12 23 2 14 11 23
24 25 12 2 29 11 38 21 16 17 13 22 -41 74 -74 70 -119 107 -129 107 -5 -1
-26 -20 -46 -44z"/>
<path d="M870 3432 c0 -14 21 -29 53 -37 28 -8 36 5 14 23 -18 15 -67 26 -67
14z"/>
<path d="M4245 3300 c33 -35 55 -39 55 -10 0 22 -28 40 -61 40 -22 0 -22 -1 6
-30z"/>
<path d="M3710 2865 c-8 -9 -8 -15 -2 -15 12 0 26 19 19 26 -2 2 -10 -2 -17
-11z"/>
<path d="M4390 2015 c-14 -17 -5 -51 17 -59 33 -13 57 36 31 62 -16 16 -33 15
-48 -3z"/>
<path d="M3050 1147 c0 -2 25 -21 55 -42 31 -21 74 -61 97 -89 23 -28 45 -55
49 -60 8 -9 48 31 49 49 0 22 -101 104 -155 124 -49 19 -95 27 -95 18z"/>
</g>
</svg>
